
        <svg xmlns="http://www.w3.org/2000/svg" xmlns:xlink="http://www.w3.org/1999/xlink" version="1.1" width="3146.1632155907428" 
        height="1059.6833130328866" viewBox="0 0 3146.1632155907428 1059.6833130328866">
			<rect fill="#1a012b" width="3146.1632155907428" height="1059.6833130328866"/>
			<g transform="scale(7.3081607795371495) translate(10, 10)">
				<defs id="SvgjsDefs17003"><linearGradient id="SvgjsLinearGradient17012"><stop id="SvgjsStop17013" stop-color="#834f2a" offset="0"></stop><stop id="SvgjsStop17014" stop-color="#dba173" offset="0.5"></stop><stop id="SvgjsStop17015" stop-color=" #834F2A" offset="1"></stop></linearGradient><linearGradient id="SvgjsLinearGradient17016"><stop id="SvgjsStop17017" stop-color="#834f2a" offset="0"></stop><stop id="SvgjsStop17018" stop-color="#dba173" offset="0.5"></stop><stop id="SvgjsStop17019" stop-color=" #834F2A" offset="1"></stop></linearGradient><linearGradient id="SvgjsLinearGradient17020"><stop id="SvgjsStop17021" stop-color="#834f2a" offset="0"></stop><stop id="SvgjsStop17022" stop-color="#dba173" offset="0.5"></stop><stop id="SvgjsStop17023" stop-color=" #834F2A" offset="1"></stop></linearGradient></defs><g id="SvgjsG17004" featureKey="symbolContainer" transform="matrix(1,0,0,1,0,0)" fill="url(#SvgjsLinearGradient17012)"><rect width="128" height="125" rx="8"></rect></g><g id="SvgjsG17005" featureKey="symbolFeature-0" transform="matrix(1.3671875,0,0,1.3671875,-4.609375,-5.610351301729679)" fill="#1a012b"><g xmlns="http://www.w3.org/2000/svg"><path fill="#1a012b" d="M50,22.372c16.542,0,30,13.458,30,30s-13.458,30-30,30s-30-13.458-30-30S33.458,22.372,50,22.372    M50,20.372c-17.673,0-32,14.327-32,32c0,17.673,14.327,32,32,32s32-14.327,32-32C82,34.699,67.673,20.372,50,20.372L50,20.372z"></path><rect x="42" y="15.075" fill="#1a012b" width="16" height="2.517"></rect><path fill="#1a012b" d="M80.011,35.359c0,0-0.166-0.268-0.455-0.737c-0.3-0.448-0.681-1.186-1.223-1.896   c-0.265-0.367-0.551-0.765-0.854-1.185c-0.289-0.428-0.68-0.836-1.036-1.283c-0.37-0.438-0.733-0.908-1.165-1.33   c-0.418-0.435-0.842-0.876-1.266-1.318c-0.454-0.41-0.908-0.821-1.355-1.225c-0.435-0.419-0.916-0.767-1.365-1.124   c-0.458-0.344-0.872-0.718-1.317-1c-0.436-0.294-0.848-0.572-1.229-0.829c-0.75-0.532-1.446-0.86-1.9-1.144   c-0.464-0.268-0.729-0.42-0.729-0.42l0.936-1.768c0,0,0.321,0.083,0.867,0.274c0.272,0.1,0.603,0.221,0.981,0.36   c0.386,0.133,0.814,0.296,1.246,0.538c0.444,0.222,0.925,0.468,1.421,0.751c0.508,0.265,0.993,0.619,1.505,0.974   c0.502,0.366,1.061,0.701,1.534,1.154c0.493,0.431,0.993,0.869,1.494,1.307c0.452,0.487,0.904,0.975,1.35,1.455   c0.464,0.463,0.819,1.008,1.199,1.5c0.373,0.503,0.73,0.97,1.023,1.482c0.307,0.497,0.57,0.981,0.812,1.424   c0.265,0.44,0.431,0.851,0.565,1.213c0.144,0.362,0.269,0.678,0.372,0.938c0.199,0.524,0.29,0.838,0.29,0.838L80.011,35.359z"></path><circle fill="#1a012b" cx="50" cy="52.372" r="3.542"></circle><polygon fill="#1a012b" points="48.499,50.871 69.166,32.499 69.873,33.206 51.502,53.874  "></polygon><polygon fill="#1a012b" points="48.593,53.962 36.554,41.149 37.216,40.4 51.406,50.78  "></polygon></g></g><g id="SvgjsG17006" featureKey="nameFeature-0" transform="matrix(2.5887573574937845,0,0,2.5887573574937845,142.5118365499965,-37.31949850688839)" fill="url(#SvgjsLinearGradient17016)"><path d="M10.16 41.2 l-0.52 0 l-0.6 -0.08 l-1.04 -0.24 c-2 -0.68 -3.56 -1.76 -4.6 -3.68 c-0.16 -0.24 -0.28 -0.52 -0.4 -0.76 l-0.16 -0.4 c-0.08 -0.12 -0.12 -0.24 -0.16 -0.36 c-0.08 -0.28 -0.2 -0.56 -0.24 -0.84 c-0.04 -0.12 -0.08 -0.24 -0.08 -0.36 c0 -0.04 0 -0.08 -0.04 -0.12 c0 -0.16 -0.04 -0.28 -0.04 -0.4 c-0.04 -0.12 -0.04 -0.24 -0.04 -0.32 c-0.04 -0.08 -0.04 -0.2 -0.04 -0.28 l0 -0.16 c0 -0.04 0 -0.08 -0.04 -0.16 l0 -0.28 c0 -0.08 0 -0.16 -0.04 -0.24 c0 -0.08 0.04 -0.12 0.04 -0.16 c-0.04 -0.08 0 -0.12 0 -0.16 c-0.04 -0.08 -0.04 -0.12 0 -0.2 l0 -0.44 c0.04 -0.16 0 -0.28 0.04 -0.4 c0 -0.16 0.16 -0.8 0.2 -0.88 c0.04 -0.2 0.08 -0.44 0.2 -0.64 c0.08 -0.36 0.24 -0.68 0.4 -1 c0.08 -0.2 0.16 -0.4 0.28 -0.6 c0.68 -1.24 1.68 -2.28 3.04 -2.88 c0.16 -0.08 0.36 -0.16 0.52 -0.2 l0.64 -0.24 c0.08 0 0.12 -0.04 0.2 -0.04 c0.12 0 0.2 -0.04 0.32 -0.08 c0.16 0 0.32 -0.04 0.44 -0.04 c0.08 0 0.12 -0.04 0.16 -0.04 s0.12 0 0.16 -0.04 l0.04 0 c0.24 0 0.48 -0.04 0.72 0 l0.2 0 c0.08 0 0.16 0.04 0.24 0.04 c0.2 0 0.44 0.08 0.68 0.12 c0.04 0 0.12 0.04 0.16 0.04 l0.64 0.32 l0.04 0 c0.04 0 0.12 0.04 0.16 0.08 l0.44 0.24 c0.16 0.08 0.32 0.16 0.44 0.28 l0.36 0.28 l0.4 0.36 c0.16 0.2 0.32 0.4 0.44 0.6 l0.2 0.28 l0.2 0.36 c0.08 0.16 0.16 0.32 0.2 0.48 l0.2 0.64 c0.04 0.12 0.08 0.28 0.08 0.44 l0.08 0.4 l0 0.08 c0 0.24 0.04 0.44 0 0.64 c0 0.16 0 0.28 -0.04 0.4 c0 0.08 0 0.16 -0.04 0.28 c0 0.08 0 0.16 -0.04 0.24 l0 0.04 c0 0.16 -0.04 0.28 -0.08 0.4 c0 0.12 -0.04 0.24 -0.04 0.32 l-0.16 0.56 l-0.12 0.24 c-0.12 0.24 -0.2 0.48 -0.36 0.68 l-0.28 0.44 c-0.08 0.08 -0.16 0.16 -0.2 0.24 c-0.16 0.16 -0.28 0.32 -0.44 0.44 l-0.48 0.36 l-0.24 0.12 l-0.48 0.12 c-0.16 0.04 -0.32 0.04 -0.48 0.04 c-0.28 -0.04 -0.6 -0.08 -0.88 -0.24 c-0.16 -0.04 -0.32 -0.16 -0.4 -0.32 c0 0 -0.04 0 -0.04 -0.04 c-0.08 -0.12 0 -0.2 0.12 -0.2 c0.16 0 0.28 -0.04 0.44 -0.04 s0.36 -0.04 0.52 -0.12 l0.8 -0.48 c0.24 -0.16 0.4 -0.36 0.56 -0.56 c0.12 -0.12 0.2 -0.24 0.28 -0.36 l0.32 -0.56 c0.08 -0.12 0.16 -0.28 0.2 -0.44 c0.12 -0.16 0.16 -0.36 0.2 -0.52 c0.08 -0.2 0.12 -0.44 0.16 -0.64 c0.04 -0.28 0.04 -0.56 0 -0.84 c0 -0.2 -0.04 -0.44 -0.08 -0.64 c-0.04 -0.28 -0.12 -0.52 -0.2 -0.8 c-0.12 -0.32 -0.24 -0.64 -0.44 -0.96 c-0.08 -0.16 -0.16 -0.32 -0.28 -0.48 c-0.08 -0.16 -0.2 -0.28 -0.32 -0.44 c-0.08 -0.12 -0.2 -0.2 -0.28 -0.28 c-0.2 -0.16 -0.4 -0.24 -0.6 -0.36 c-0.28 -0.16 -0.56 -0.28 -0.88 -0.36 c-0.2 -0.04 -0.36 -0.12 -0.56 -0.2 c-0.04 0 -0.12 0 -0.16 -0.04 c-0.08 -0.04 -0.12 -0.04 -0.2 -0.04 l-0.16 0 c-0.08 -0.04 -0.16 0 -0.24 0 l-0.24 0 l-0.44 0.08 l-0.24 0 c-0.2 0.04 -0.36 0.08 -0.56 0.16 c-0.12 0 -0.2 0.04 -0.32 0.08 s-0.24 0.08 -0.36 0.16 c-0.08 0 -0.16 0.04 -0.2 0.04 c-0.12 0.04 -0.2 0.08 -0.28 0.16 c-0.16 0.08 -0.32 0.12 -0.44 0.24 c-0.16 0.08 -0.32 0.16 -0.48 0.28 l-0.32 0.28 c-0.16 0.12 -0.32 0.24 -0.44 0.4 c-0.24 0.2 -0.44 0.48 -0.64 0.72 c-0.12 0.2 -0.28 0.4 -0.36 0.64 l-0.32 0.64 l-0.16 0.32 c-0.04 0.16 -0.08 0.28 -0.08 0.4 c-0.04 0.04 -0.04 0.12 -0.04 0.16 c-0.04 0.12 -0.08 0.28 -0.08 0.4 c0 0.04 -0.04 0.08 -0.04 0.08 c0 0.16 -0.04 0.32 -0.04 0.48 c-0.04 0.16 -0.04 0.32 -0.04 0.48 c-0.04 0.12 -0.04 0.24 -0.04 0.4 c0 0.04 -0.04 0.08 0 0.16 c0.04 0.04 0.04 0.08 0 0.16 c-0.04 0.16 0 0.32 0 0.48 c-0.04 0.2 0 0.44 0.04 0.64 c0 0.2 0 0.36 0.04 0.52 l0.12 0.56 c0 0.16 0.08 0.28 0.08 0.4 c0 0.08 0.04 0.16 0.04 0.24 c0.04 0.12 0.08 0.2 0.08 0.32 c0 0.04 0.04 0.12 0.08 0.16 c0.08 0.28 0.2 0.6 0.32 0.88 l0.36 0.68 c0.2 0.32 0.4 0.68 0.64 0.96 l0.36 0.44 c0.16 0.16 0.32 0.36 0.52 0.52 l0.16 0.16 c0.24 0.12 0.44 0.28 0.64 0.4 l0.48 0.24 l0.72 0.32 c0.24 0.08 0.52 0.16 0.8 0.2 l0.36 0.08 c0.36 0.04 0.72 0.04 1.04 0.04 c0.28 0 0.52 0 0.76 -0.04 c0.2 0 1.88 -0.4 2.2 -0.68 c0.2 -0.08 0.4 -0.16 0.56 -0.32 c0.12 -0.04 0.24 -0.12 0.32 -0.2 l0.2 -0.12 c0.28 -0.16 0.56 -0.4 0.8 -0.64 l0.44 -0.52 l0.4 -0.44 l0.48 -0.68 l0.4 -0.68 c0.04 -0.16 0.12 -0.32 0.2 -0.48 c0.04 -0.04 0.04 -0.12 0.04 -0.16 c0.08 -0.24 0.16 -0.44 0.2 -0.68 l0.12 -0.48 l0.08 -0.4 c0.04 -0.16 0.04 -0.28 0.04 -0.4 l0 -1.52 c-0.08 -0.24 0 -0.52 -0.08 -0.76 c0.04 -0.16 -0.04 -0.28 0 -0.4 c0 -0.08 -0.04 -0.12 -0.04 -0.16 s0 -0.12 -0.04 -0.16 c0.04 -0.12 0 -0.28 -0.04 -0.4 l0 -0.52 c-0.04 -0.12 -0.04 -0.24 -0.04 -0.36 s0 -0.28 -0.04 -0.44 c0 -0.08 -0.04 -0.16 -0.04 -0.24 c-0.04 -0.2 0 -0.36 -0.08 -0.56 l0 -0.24 l-0.08 -0.36 c0 -0.16 0 -0.36 -0.04 -0.56 c0 -0.2 -0.04 -0.36 -0.04 -0.56 l-0.08 -0.64 l0 -0.36 c-0.04 -0.12 0 -0.28 -0.04 -0.4 c-0.04 -0.16 0 -0.32 -0.04 -0.44 c-0.04 -0.32 0 -0.6 0 -0.92 l0 -0.52 c0.04 -0.08 0.04 -0.2 0.04 -0.28 s0.04 -0.12 0.04 -0.2 c0.04 -0.12 0 -0.24 0.08 -0.36 c0 -0.08 0.04 -0.2 0.04 -0.32 c0 -0.08 0.04 -0.16 0.08 -0.24 l0.12 -0.4 c0 -0.08 0.04 -0.12 0.04 -0.16 c0.12 -0.28 0.28 -0.56 0.44 -0.84 c0.12 -0.24 0.24 -0.44 0.4 -0.64 l0.36 -0.4 l0.16 -0.2 c0.08 -0.04 0.16 -0.08 0.24 -0.16 c0.16 -0.16 0.36 -0.28 0.56 -0.44 s0.4 -0.32 0.64 -0.44 c0.2 -0.12 0.4 -0.28 0.64 -0.36 c0.12 0 0.2 -0.04 0.32 -0.08 c0.08 -0.04 0.16 -0.08 0.28 -0.08 c0.16 -0.04 0.36 -0.08 0.52 -0.08 c0.16 -0.04 0.28 0 0.4 0 c0.04 0 0.08 0 0.12 -0.04 l0.2 0 c0 0.04 0.04 0.04 0.08 0.04 c0.12 -0.04 0.24 0 0.32 0.04 l0.36 0.12 c0.04 0.04 0.12 0.08 0.2 0.08 c0.2 0.12 0.4 0.2 0.56 0.36 l0.2 0.12 c0.2 0.2 0.4 0.36 0.52 0.6 c0.08 0.12 0.16 0.2 0.2 0.32 l0 0.04 c0.08 0.04 0.08 0.12 0.12 0.2 l0.12 0.24 c0 0.04 0.04 0.12 0.08 0.2 c0.04 0.04 0.04 0.12 0.04 0.16 c0 0.08 0.04 0.16 0.08 0.2 c0.04 0.16 0.08 0.36 0.08 0.52 c0.04 0.04 0.04 0.12 0.04 0.2 c0.04 0.04 0.04 0.12 0.04 0.16 c-0.04 0.08 0 0.16 0 0.2 c0.04 0.08 -0.04 0.2 0 0.28 c0 0.08 -0.04 0.16 -0.04 0.24 c0 0.16 -0.08 0.32 -0.08 0.48 c0 0.04 0 0.08 -0.04 0.08 c-0.08 0.36 -0.2 0.68 -0.36 1 l-0.08 0.32 c0 0.16 -0.04 0.28 -0.08 0.4 l-0.16 0.52 l-0.24 0.64 c-0.12 0.2 -0.24 0.4 -0.4 0.6 c-0.12 0.16 -0.28 0.32 -0.48 0.4 c-0.12 0.08 -0.2 0.08 -0.28 0.12 c-0.04 0.04 -0.04 0.04 -0.08 0.04 s-0.12 -0.04 -0.2 0 c-0.04 0.04 -0.12 -0.04 -0.16 -0.04 c-0.24 -0.08 -0.4 -0.2 -0.52 -0.4 c-0.08 -0.2 -0.08 -0.4 -0.04 -0.6 s0.08 -0.36 0.2 -0.52 l0.24 -0.4 c0.2 -0.28 0.44 -0.52 0.68 -0.76 l0.2 -0.16 c0.08 0 0.08 -0.08 0.16 -0.12 c0.04 0 0.08 -0.08 0.12 -0.12 c0.12 -0.12 0.2 -0.24 0.28 -0.36 l0.28 -0.48 c0.08 -0.2 0.12 -0.4 0.2 -0.56 c0 -0.08 -0.04 -0.16 0.04 -0.24 c0 -0.16 0.04 -0.32 0 -0.52 l0 -0.12 c0 -0.2 -0.04 -0.48 -0.08 -0.68 l-0.12 -0.4 l-0.28 -0.56 c-0.04 -0.08 -0.12 -0.16 -0.2 -0.24 l-0.28 -0.32 l-0.28 -0.24 l-0.36 -0.16 c-0.12 -0.04 -0.24 -0.12 -0.4 -0.12 l-0.12 0 c-0.2 0 -0.4 0.04 -0.56 0.12 l-0.36 0.12 l-0.56 0.32 l-0.36 0.32 c-0.24 0.2 -0.4 0.44 -0.6 0.64 c-0.16 0.2 -0.28 0.4 -0.4 0.6 l-0.2 0.44 c-0.08 0.08 -0.12 0.2 -0.12 0.28 c-0.04 0.16 -0.12 0.28 -0.2 0.4 c-0.04 0.28 -0.16 0.56 -0.2 0.84 l-0.12 0.6 c0 0.04 -0.04 0.08 0 0.12 c0 0.04 -0.04 0.04 0 0.08 l0 0.12 c-0.08 0.16 -0.04 0.32 -0.04 0.48 c-0.04 0.32 -0.04 0.68 -0.04 1 c0 0.36 0.04 0.68 0.04 1.04 c0.04 0.08 0 0.2 0.04 0.28 l0 0.04 c0 0.12 0.04 0.28 0.04 0.4 c0 0.08 0.04 0.12 0.04 0.16 s-0.04 0.12 0 0.16 l0 0.04 c0 0.12 0.04 0.24 0.04 0.36 c0.04 0.16 0.04 0.32 0.04 0.48 c0.04 0.12 0.08 0.24 0.08 0.36 c0.04 0.16 0.08 0.32 0.08 0.48 c0 0.04 0 0.08 0.04 0.12 c0 0.16 0 0.32 0.04 0.48 l0.08 0.64 l0 0.4 c0.04 0.08 0 0.2 0.04 0.28 c0.04 0.16 0 0.32 0.04 0.48 c0.04 0.08 0 0.24 0 0.36 c0.08 0.4 0.04 0.84 0.04 1.28 c-0.04 0.28 -0.04 0.56 -0.04 0.84 c0 0.12 0 0.24 -0.04 0.36 c0 0.16 -0.04 0.36 -0.04 0.52 c-0.04 0.16 -0.08 0.32 -0.08 0.44 l-0.12 0.48 c-0.04 0.24 -0.12 0.48 -0.2 0.72 c-0.04 0.2 -0.16 0.4 -0.24 0.6 c-0.08 0.28 -0.24 0.48 -0.36 0.72 c-0.16 0.32 -0.36 0.68 -0.6 0.96 l-0.32 0.4 l-0.48 0.48 c-0.16 0.16 -0.32 0.28 -0.48 0.4 c-0.2 0.16 -0.4 0.32 -0.6 0.44 l-0.44 0.24 c-0.16 0.12 -0.36 0.2 -0.56 0.28 c-1.44 0.68 -3.08 1.2 -4.28 1.08 z M20.720000000000002 38.24 c-0.52 -2.92 6.8 -15 8.24 -17.8 l0.12 -0.2 c0.08 -0.16 0.24 -0.32 0.32 -0.52 l0.36 -0.56 c0.08 -0.2 0.24 -0.4 0.36 -0.56 c0.08 -0.08 0.16 -0.2 0.28 -0.24 c0.08 -0.08 0.24 -0.12 0.36 -0.12 c0.12 -0.04 0.28 0 0.4 -0.04 c0.08 -0.04 0.16 -0.04 0.24 0 c0.16 0 0.36 0.08 0.52 0.12 c0.2 0.04 0.4 0.12 0.52 0.36 c0 0.08 0 0.12 -0.04 0.16 l-0.44 0.88 l-0.32 0.48 l-0.08 0.16 l-0.24 0.44 l-0.2 0.36 l-0.4 0.68 c-0.12 0.28 -5.72 10.68 -5.88 10.92 c-0.2 0.32 -0.36 0.68 -0.52 1 l-0.48 0.92 c-0.12 0.2 -0.2 0.44 -0.32 0.68 l-0.2 0.32 l-0.24 0.72 c-0.08 0.16 -0.12 0.32 -0.16 0.48 c0 0.08 -0.04 0.12 -0.04 0.2 c0 0.16 -0.04 0.32 -0.04 0.48 s0.08 0.32 0.08 0.44 l0.16 0.24 c0.04 0.04 0.08 0.12 0.16 0.16 s0.16 0.08 0.24 0.08 c0.12 0 0.28 0 0.4 -0.04 c0.08 0 0.16 -0.04 0.24 -0.08 c0.2 -0.08 0.36 -0.24 0.52 -0.36 l0.44 -0.44 c0.24 -0.32 0.52 -0.6 0.76 -0.96 l0.36 -0.44 c0.12 -0.16 0.24 -0.24 0.32 -0.4 l0.16 -0.2 c0.2 -0.2 0.32 -0.44 0.52 -0.64 l0.36 -0.52 l0.44 -0.6 l0.56 -0.76 c0.04 -0.08 0.16 -0.16 0.2 -0.28 c0.04 -0.04 0.08 -0.04 0.08 0 c0.04 0.04 0.08 0.04 0.12 0.04 s0.08 0 0.12 0.04 l0.04 0.04 c0 0.08 0 0.16 -0.04 0.24 c-0.04 0.16 -0.12 0.28 -0.2 0.4 c-0.2 0.24 -0.36 0.48 -0.52 0.72 l-0.56 0.76 l-0.52 0.76 l-0.48 0.64 l-0.12 0.2 l-0.6 0.68 l-0.68 0.72 c-0.12 0.16 -0.28 0.32 -0.44 0.44 c-0.28 0.28 -0.52 0.52 -0.84 0.76 l-0.16 0.08 l-0.44 0.24 c-0.2 0.12 -0.4 0.2 -0.6 0.24 c-0.12 0 -0.24 0.04 -0.36 0.04 s-0.24 -0.04 -0.36 -0.08 s-0.24 -0.08 -0.36 -0.08 l-0.2 -0.12 l-0.28 -0.2 c-0.28 -0.2 -0.6 -0.8 -0.64 -1.08 z M40.6 32.88 l0 0.16 c0.04 0.08 -0.04 0.16 -0.12 0.24 l0 0.04 s0 0.04 -0.04 0.04 l-0.52 0.68 c-0.64 0.6 -1.56 1.6 -3.24 1.72 c-0.28 0 -0.52 -0.04 -0.76 -0.08 c0 0 -0.04 0.04 -0.04 0.08 c-0.08 0.16 -0.2 0.28 -0.28 0.4 l-0.52 0.72 l-0.44 0.52 c-0.08 0.12 -0.2 0.2 -0.28 0.36 c-0.08 0.08 -0.16 0.16 -0.24 0.2 s-0.12 0.12 -0.16 0.16 l-0.52 0.44 c-0.2 0.16 -0.4 0.32 -0.6 0.44 c-0.16 0.08 -0.32 0.2 -0.52 0.28 c-0.08 0 -0.12 0.08 -0.16 0.12 c-0.28 0.08 -0.52 0.2 -0.76 0.32 c-0.2 0.04 -0.4 0.08 -0.56 0.16 c-0.48 0 -0.96 0.08 -1.48 0 c-0.04 0 -0.08 -0.04 -0.2 -0.04 c-0.2 -0.12 -0.4 -0.2 -0.56 -0.32 c-0.44 -0.32 -0.84 -0.72 -1.08 -1.28 l-0.12 -0.36 c0 -0.04 0 -0.08 -0.04 -0.12 c-0.04 -0.12 -0.04 -0.24 -0.04 -0.36 c-0.04 -0.08 -0.08 -0.16 -0.04 -0.24 c0 -0.08 0 -0.12 -0.04 -0.2 l0 -0.16 c0.04 -0.04 0.04 -0.08 0.04 -0.12 c-0.04 -0.12 0 -0.2 0 -0.28 s0 -0.2 0.04 -0.28 c0.04 -0.16 0.04 -0.32 0.12 -0.48 c0 -0.2 0.12 -0.4 0.12 -0.6 l0.16 -0.4 c0.08 -0.2 0.16 -0.4 0.28 -0.6 l0.24 -0.52 c0 -0.04 0.08 -0.08 0.08 -0.16 c0.04 -0.12 0.16 -0.2 0.2 -0.32 l0.16 -0.28 c0.08 -0.16 0.4 -0.8 0.52 -0.92 c0.16 -0.24 0.32 -0.48 0.52 -0.72 c0.12 -0.16 0.28 -0.32 0.4 -0.52 c0.12 -0.12 0.24 -0.2 0.32 -0.36 c0.08 -0.08 0.16 -0.16 0.24 -0.2 l0.16 -0.16 l0.48 -0.44 l0.64 -0.44 c0.16 -0.08 0.32 -0.2 0.52 -0.28 c0.04 0 0.12 -0.08 0.16 -0.08 l0.76 -0.32 c0.2 -0.08 0.4 -0.12 0.56 -0.2 c0.08 0 0.16 0.04 0.2 -0.04 c0.04 0.04 0.08 0 0.12 0 l0.24 0 c0.2 0 0.84 0.04 1.04 0.12 c0.24 0.08 0.52 0.2 0.72 0.32 l0 0.04 c0.4 0.32 0.76 0.68 0.96 1.2 c0.08 0.12 0.12 0.24 0.12 0.36 c0 0.04 0.04 0.08 0.04 0.16 c0.04 0.08 0.08 0.2 0.08 0.32 c0 0.08 0.04 0.16 0.04 0.24 s0 0.16 0.04 0.2 c0 0.04 0 0.12 -0.04 0.16 l0 0.12 c0.04 0.12 0 0.2 0 0.28 c0 0.12 -0.04 0.2 -0.04 0.28 c-0.2 0.88 -0.48 1.92 -0.96 2.76 c-0.08 0.16 -0.16 0.36 -0.28 0.52 c0.16 0.08 0.36 0.16 0.56 0.16 l0.04 0 c0.24 0 0.28 0 0.48 -0.08 c0.8 -0.24 1.8 -1.36 2.44 -1.92 c0.2 -0.16 0.4 -0.44 0.6 -0.56 l0.08 0 c0.08 0 0.08 0.04 0.12 0.04 c0.04 0.04 0.04 0.04 0.04 0.08 z M35.480000000000004 33.12 c0.12 0.4 0.12 1.24 0.32 1.6 c0.12 -0.24 0.52 -0.88 0.64 -1.24 c0.16 -0.52 0.4 -1.6 0.4 -1.68 c0.04 -0.64 0 -1.32 -0.32 -1.88 c0 -0.04 0 -0.04 -0.04 -0.08 c-0.2 -0.32 -0.52 -0.52 -0.84 -0.72 c-0.2 -0.12 -0.84 -0.2 -1.08 -0.16 l-0.36 0.12 l-0.32 0.2 c-0.16 0.16 -0.32 0.28 -0.48 0.48 l-0.24 0.24 l-0.72 0.76 c-0.16 0.16 -0.24 0.32 -0.4 0.48 l-0.32 0.36 c-0.08 0.16 -0.2 0.28 -0.28 0.4 c-0.12 0.16 -0.48 0.84 -0.56 1 c-0.16 0.2 -0.28 0.4 -0.4 0.6 s-0.24 0.44 -0.4 0.64 c0 0.04 -0.04 0.08 -0.04 0.16 c-0.2 0.32 -0.36 0.68 -0.48 1.04 l-0.08 0.16 c-0.32 0.88 -0.48 1.84 -0.2 2.72 c0.08 0.32 0.24 0.6 0.44 0.84 c0.2 0.08 0.8 0.12 1 0.12 c0.52 0 1.56 -0.56 2 -1 c0.8 -0.64 1.56 -1.36 2.16 -2.16 c0.16 -0.2 0.32 -0.4 0.44 -0.6 c-0.28 -0.12 -0.64 -0.48 -0.88 -0.68 c-0.56 -0.44 -0.6 -1.2 -0.32 -1.8 c0.08 -0.16 0.2 -0.28 0.36 -0.36 s0.32 -0.12 0.44 -0.08 c0.28 0.04 0.48 0.28 0.56 0.52 z M38.480000000000004 38.24 c-0.28 -1.72 2.12 -6.68 4.48 -11.04 l-0.44 0 c-0.48 -0.04 -0.92 0 -1.36 0 c-0.16 0 -0.28 -0.08 -0.4 -0.12 c-0.08 -0.08 -0.28 -0.16 0.08 -0.36 c0.04 -0.04 0.12 -0.08 0.16 -0.08 c0.12 -0.04 0.24 -0.04 0.36 -0.04 c0.28 0 0.6 -0.04 0.92 0 c0.28 0 0.6 -0.04 0.88 0 c0 0 0.08 0.04 0.12 0.04 c1.48 -2.72 2.88 -5.12 3.44 -6.2 l0.12 -0.2 c0.08 -0.16 0.24 -0.32 0.32 -0.52 l0.36 -0.56 c0.08 -0.2 0.24 -0.4 0.36 -0.56 c0.08 -0.08 0.16 -0.2 0.28 -0.24 c0.08 -0.08 0.24 -0.12 0.36 -0.12 c0.12 -0.04 0.28 0 0.4 -0.04 c0.08 -0.04 0.16 -0.04 0.24 0 c0.16 0 0.36 0.08 0.52 0.12 c0.2 0.04 0.4 0.12 0.52 0.36 c0 0.08 0 0.12 -0.04 0.16 l-0.44 0.88 l-0.32 0.48 l-0.08 0.16 l-0.24 0.44 l-0.2 0.36 l-0.4 0.68 c-0.08 0.12 -1.24 2.36 -2.56 4.76 c0.08 0 0.16 0.04 0.24 0.04 l0.56 0 c0.48 0.04 0.92 0 1.36 0 c0.16 0 0.28 0.08 0.4 0.12 c0.32 0.2 0 0.44 -0.24 0.44 c-0.12 0.04 -0.24 0.04 -0.36 0.04 c-0.28 0 -0.6 0.04 -0.92 0 c-0.28 0 -0.6 0.04 -0.88 0 l-0.48 0 l-3 5.52 c-0.2 0.32 -0.36 0.68 -0.52 1 l-0.48 0.92 c-0.12 0.2 -0.2 0.44 -0.32 0.68 l-0.2 0.32 l-0.24 0.72 c-0.08 0.16 -0.12 0.32 -0.16 0.48 c0 0.08 -0.04 0.12 -0.04 0.2 c0 0.16 -0.04 0.32 -0.04 0.48 s0.08 0.32 0.08 0.44 l0.16 0.24 c0.04 0.04 0.08 0.12 0.16 0.16 s0.16 0.08 0.24 0.08 c0.12 0 0.28 0 0.4 -0.04 c0.08 0 0.16 -0.04 0.24 -0.08 c0.2 -0.08 0.36 -0.24 0.52 -0.36 l0.44 -0.44 c0.24 -0.32 0.52 -0.6 0.76 -0.96 l0.36 -0.44 c0.12 -0.16 0.24 -0.24 0.32 -0.4 l0.16 -0.2 c0.2 -0.2 0.32 -0.44 0.52 -0.64 l0.36 -0.52 l0.44 -0.6 l0.56 -0.76 c0.04 -0.08 0.16 -0.16 0.2 -0.28 c0.04 -0.04 0.08 -0.04 0.08 0 c0.04 0.04 0.08 0.04 0.12 0.04 s0.08 0 0.12 0.04 l0.04 0.04 c0 0.08 0 0.16 -0.04 0.24 c-0.04 0.16 -0.12 0.28 -0.2 0.4 c-0.2 0.24 -0.36 0.48 -0.52 0.72 l-0.56 0.76 l-0.52 0.76 l-0.48 0.64 l-0.12 0.2 l-0.6 0.68 l-0.68 0.72 c-0.12 0.16 -0.28 0.32 -0.44 0.44 c-0.28 0.28 -0.52 0.52 -0.84 0.76 l-0.16 0.08 l-0.44 0.24 c-0.2 0.12 -0.4 0.2 -0.6 0.24 c-0.12 0 -0.24 0.04 -0.36 0.04 s-0.24 -0.04 -0.36 -0.08 s-0.24 -0.08 -0.36 -0.08 l-0.2 -0.12 l-0.28 -0.2 c-0.28 -0.2 -0.6 -0.8 -0.64 -1.08 z M44.88000000000001 38.56 c-0.64 -1.92 1.28 -5.2 2.72 -8 l0.12 -0.2 c0.08 -0.16 0.24 -0.32 0.32 -0.52 l0.36 -0.56 c0.08 -0.2 0.24 -0.4 0.36 -0.56 c0.08 -0.08 0.16 -0.2 0.28 -0.24 c0.08 -0.08 0.24 -0.12 0.36 -0.12 c0.12 -0.04 0.28 0 0.4 -0.04 c0.08 -0.04 0.16 -0.04 0.24 0 c0.16 0 0.36 0.08 0.52 0.12 c0.2 0.04 0.4 0.12 0.52 0.36 c0 0.08 0 0.12 -0.04 0.16 l-0.44 0.88 l-0.32 0.48 l-0.08 0.16 l-0.24 0.44 l-0.2 0.36 l-0.4 0.68 c-0.12 0.28 -0.28 0.56 -0.44 0.8 c-0.2 0.32 -0.36 0.68 -0.52 1 l-0.48 0.92 c-0.12 0.2 -0.2 0.44 -0.32 0.68 l-0.2 0.32 l-0.24 0.72 c-0.08 0.16 -0.12 0.32 -0.16 0.48 c0 0.08 -0.04 0.12 -0.04 0.2 c0 0.16 -0.04 0.32 -0.04 0.48 s0.08 0.32 0.08 0.44 l0.16 0.24 c0.04 0.04 0.08 0.12 0.16 0.16 s0.16 0.08 0.24 0.08 c0.12 0 0.28 0 0.4 -0.04 c0.08 0 0.16 -0.04 0.24 -0.08 c0.2 -0.08 0.36 -0.24 0.52 -0.36 l0.44 -0.44 c0.24 -0.32 0.52 -0.6 0.76 -0.96 l0.36 -0.44 c0.12 -0.16 0.24 -0.24 0.32 -0.4 l0.16 -0.2 c0.2 -0.2 0.32 -0.44 0.52 -0.64 l0.36 -0.52 l0.44 -0.6 l0.56 -0.76 c0.04 -0.08 0.16 -0.16 0.2 -0.28 c0.04 -0.04 0.08 -0.04 0.08 0 c0.04 0.04 0.08 0.04 0.12 0.04 s0.08 0 0.12 0.04 l0.04 0.04 c0 0.08 0 0.16 -0.04 0.24 c-0.04 0.16 -0.12 0.28 -0.2 0.4 c-0.2 0.24 -0.36 0.48 -0.52 0.72 l-0.56 0.76 l-0.52 0.76 l-0.48 0.64 l-0.12 0.2 l-0.6 0.68 l-0.68 0.72 c-0.12 0.16 -0.28 0.32 -0.44 0.44 c-0.28 0.28 -0.52 0.52 -0.84 0.76 l-0.16 0.08 l-0.44 0.24 c-0.2 0.12 -0.4 0.2 -0.6 0.24 c-0.12 0 -0.24 0.04 -0.36 0.04 s-0.24 -0.04 -0.36 -0.08 s-0.24 -0.08 -0.36 -0.08 l-0.2 -0.12 l-0.28 -0.2 c-0.28 -0.2 -0.44 -0.48 -0.56 -0.76 z M51.16000000000001 26.759999999999998 l-0.12 0 c-0.04 0 -0.12 0.04 -0.2 0 s-0.32 -0.16 -0.36 -0.24 l-0.04 0 c-0.16 -0.12 -0.2 -0.28 -0.28 -0.48 c0 -0.04 -0.04 -0.08 0 -0.12 l0 -0.16 c0 -0.12 0.04 -0.2 0.12 -0.24 c0.04 -0.12 0.12 -0.16 0.2 -0.24 l0.16 -0.2 c0.12 -0.08 0.24 -0.16 0.4 -0.08 l0.08 0 c0.04 -0.04 0.12 0 0.2 0.04 c0.12 -0.04 0.2 0.04 0.32 0.08 c0.12 0.08 0.2 0.16 0.28 0.28 c0 0.08 0.08 0.12 0.08 0.24 c0.04 0.08 0.08 0.16 0.08 0.24 s0 0.12 -0.04 0.2 c-0.04 0.04 -0.04 0.08 -0.04 0.12 c-0.04 0.12 -0.12 0.2 -0.24 0.24 l-0.16 0.12 l-0.2 0.12 c-0.08 0.08 -0.16 0.12 -0.24 0.08 z M47.32000000000001 42.76 l0 -0.08 c0.04 0 0 -0.04 0 -0.08 c0.04 -0.04 0 -0.08 0.04 -0.12 c0.08 -0.08 0.08 -0.2 0.16 -0.28 c0.08 -0.16 0.16 -0.36 0.28 -0.52 c0.12 -0.12 0.2 -0.28 0.24 -0.44 l0.24 -0.52 l0.24 -0.4 l0.24 -0.4 c0.08 -0.08 0.12 -0.16 0.16 -0.28 c0.16 -0.32 0.36 -0.64 0.56 -0.96 l0.16 -0.32 c0.08 -0.16 0.16 -0.32 0.28 -0.48 c0.12 -0.24 0.28 -0.48 0.4 -0.76 c0.16 -0.28 0.32 -0.6 0.52 -0.88 l0.24 -0.4 c0.16 -0.36 0.36 -0.72 0.56 -1.08 c0.12 -0.28 0.28 -0.56 0.44 -0.84 l0.16 -0.36 c0.08 -0.2 0.2 -0.36 0.32 -0.56 l0.44 -0.8 l0.36 -0.68 c0.08 -0.2 0.2 -0.36 0.32 -0.56 l0.44 -0.72 c0.16 -0.32 0.32 -0.64 0.52 -0.92 c0.24 -0.4 0.4 -0.8 0.64 -1.16 l0 -0.04 c0.04 -0.2 0.2 -0.36 0.32 -0.56 c0.08 -0.2 0.2 -0.36 0.32 -0.56 l0.28 -0.48 c0 -0.04 0.04 -0.08 0.08 -0.12 l0.12 -0.24 c0.16 -0.28 0.4 -0.52 0.52 -0.84 c0.16 -0.12 0.2 -0.28 0.36 -0.44 l0.24 -0.32 l0.32 -0.4 c0.12 -0.08 0.2 -0.16 0.28 -0.28 l0.16 -0.12 c0.04 -0.12 0.12 -0.2 0.2 -0.28 l0.4 -0.32 c0.08 -0.08 0.16 -0.16 0.24 -0.2 c0.28 -0.28 0.6 -0.52 0.96 -0.72 c0.2 -0.16 0.4 -0.28 0.6 -0.36 l0.4 -0.2 c0.16 -0.08 0.36 -0.12 0.52 -0.16 c0.08 -0.04 0.16 0 0.24 -0.08 c0.16 0 0.36 -0.04 0.52 -0.04 c0.16 -0.04 0.28 -0.08 0.44 -0.08 c1 0 2 1 2 2.28 c0.08 0.2 0.08 0.44 0.04 0.64 c-0.04 0.24 -0.12 0.44 -0.24 0.64 l-0.24 0.36 l-0.2 0.16 c-0.16 0.08 -0.32 0.12 -0.44 0 c-0.04 0 -0.08 -0.04 -0.08 -0.04 c-0.08 -0.12 -0.12 -0.24 -0.16 -0.36 c0.04 -0.08 0 -0.12 0.04 -0.2 l0.12 -0.48 c0.04 -0.16 0.12 -0.32 0.16 -0.52 c0.04 -0.12 0.08 -0.28 0.08 -0.4 c0 -0.8 -0.24 -1.24 -0.68 -1.16 c-0.2 0.04 -0.36 0.08 -0.56 0.16 l-0.4 0.24 c-0.2 0.2 -0.4 0.36 -0.64 0.52 l-0.64 0.6 c-0.2 0.2 -0.36 0.4 -0.52 0.6 l-0.12 0.16 c-0.2 0.16 -0.36 0.4 -0.52 0.6 c-0.04 0.08 -0.08 0.16 -0.16 0.24 l-0.72 1 c-0.16 0.2 -0.36 0.44 -0.48 0.68 l-0.8 1.16 l-0.24 0.4 l-0.2 0.4 l-0.16 0.2 l-0.32 0.48 c-0.16 0.32 -0.32 0.64 -0.52 0.96 l-0.32 0.52 l-0.28 0.52 c0 0.04 0 0.08 0.04 0.08 l0.04 0 c0.2 -0.04 0.44 0.04 0.64 0 c0.08 0 0.16 0.04 0.24 0.04 c0.44 0.08 0.24 0.08 0.56 0.08 c0.48 0.04 0.92 0 1.36 0 c0.16 0 0.28 0.08 0.4 0.12 c0.12 0.08 0.16 0.2 0.12 0.36 c-0.04 0.12 -0.08 0.24 -0.24 0.32 c-0.04 0.04 -0.12 0.08 -0.16 0.08 c-0.12 0.04 -0.24 0.04 -0.36 0.04 c-0.28 0 -0.6 0.04 -0.92 0 c-0.64 0.04 -0.44 -0.04 -1.08 0 c-0.04 0 -0.12 0 -0.12 -0.04 s-0.04 -0.04 -0.08 -0.04 l-0.96 0 c-0.04 0 -0.04 0.04 -0.08 0.08 l-0.4 0.8 l-0.24 0.44 l-0.36 0.64 c-0.08 0.12 -0.12 0.24 -0.16 0.36 c-0.12 0.2 -0.2 0.44 -0.32 0.68 l-0.56 1 l-0.12 0.28 c-0.04 0.2 -0.16 0.36 -0.2 0.52 s-0.16 0.28 -0.24 0.4 l-0.08 0.12 l-0.44 0.76 l-0.12 0.28 l-0.56 0.88 c-0.04 0.04 -0.04 0.08 -0.04 0.08 c-0.04 0.12 -0.08 0.2 -0.16 0.28 c-0.08 0.12 -0.16 0.28 -0.2 0.44 l-0.28 0.56 c-0.12 0.2 -0.24 0.4 -0.32 0.6 l-0.12 0.16 c-0.12 0.12 -0.16 0.28 -0.24 0.44 l-0.2 0.36 c-0.04 0.12 -0.16 0.2 -0.28 0.24 c-0.16 0.04 -0.32 0.12 -0.44 0.12 c-0.08 0.04 -0.12 0.04 -0.16 0.04 l-0.48 0 c-0.24 0 -0.44 -0.04 -0.64 -0.12 c-0.12 -0.08 -0.2 -0.16 -0.28 -0.32 c0 0 0 -0.04 -0.04 -0.08 z M66.44 40.96 l0.32 -0.24 l0.64 -0.48 c0.12 -0.04 0.16 -0.12 0.24 -0.2 l0.48 -0.4 c0.24 -0.16 0.44 -0.4 0.68 -0.6 l0.56 -0.48 l0.4 -0.44 l0.52 -0.48 l0.52 -0.68 l0.44 -0.6 l0.28 -0.4 l0.16 -0.2 l0.28 -0.32 l1.6 -2.4 c0.04 -0.08 0.16 -0.16 0.2 -0.24 c0.04 -0.04 0.08 -0.08 0.12 -0.04 c0 0.04 0.04 0.04 0.08 0.04 c0.12 0 0.16 0.04 0.16 0.16 c0 0.24 -0.08 0.36 -0.16 0.48 c-0.24 0.28 -0.44 0.64 -0.64 0.92 c-0.16 0.28 -0.32 0.56 -0.52 0.8 l-0.48 0.76 l-0.48 0.72 c-0.08 0.04 -0.12 0.12 -0.16 0.24 l-0.52 0.64 l-0.72 0.84 l-0.44 0.48 l-0.36 0.4 c-0.04 0 -0.04 0.04 -0.08 0.04 l-0.28 0.24 l-0.72 0.68 l-1.28 1 c-0.24 0.16 -0.48 0.28 -0.68 0.44 l-0.28 0.2 l-0.68 0.4 l-0.24 0.48 c-0.08 0.12 -0.16 0.24 -0.2 0.4 l-0.16 0.32 l-0.32 0.56 l-0.56 1.12 l-0.56 1 l-0.4 0.72 l-0.36 0.64 l-0.28 0.48 c-0.08 0.16 -0.2 0.28 -0.32 0.44 c-0.12 0.2 -0.28 0.4 -0.44 0.6 s-0.36 0.4 -0.52 0.64 l-0.48 0.48 c-0.08 0.08 -0.12 0.2 -0.2 0.24 c-0.24 0.2 -0.48 0.36 -0.76 0.52 c-0.2 0.16 -0.44 0.28 -0.68 0.36 c-0.2 0.04 -0.36 0.12 -0.52 0.16 l-0.36 0.08 c-0.2 0 -0.36 0.04 -0.52 0.08 c-0.16 0.08 -0.36 0.12 -0.52 0.08 c-0.2 0 -0.4 0.04 -0.56 0 c-0.32 -0.08 -0.6 -0.08 -0.88 -0.2 l-0.24 0 c-0.12 -0.04 -0.28 -0.04 -0.44 -0.12 l-0.64 -0.32 l-0.28 -0.24 c-0.2 -0.2 -0.4 -0.4 -0.52 -0.64 c-0.16 -0.24 -0.28 -0.52 -0.36 -0.8 l-0.08 -0.36 c-0.04 -0.24 -0.04 -0.48 -0.04 -0.72 l0.12 -0.52 c0.12 -0.36 0.24 -0.68 0.44 -1 l0.24 -0.32 l0.76 -0.8 l0.32 -0.24 c0.24 -0.24 0.56 -0.4 0.84 -0.6 c0.32 -0.24 0.68 -0.4 1.04 -0.56 c0.2 -0.12 0.4 -0.16 0.6 -0.24 l0.44 -0.2 l0.6 -0.24 l0.56 -0.2 c0.16 -0.04 0.28 -0.04 0.4 -0.12 c0.24 -0.08 0.48 -0.16 0.76 -0.2 c0.28 -0.08 0.52 -0.16 0.8 -0.2 c0.2 -0.08 0.4 -0.12 0.56 -0.16 l0.76 -0.24 l0.48 -0.16 c0.2 -0.04 0.36 -0.12 0.52 -0.16 c0.12 -0.04 0.2 -0.12 0.24 -0.24 l0.24 -0.56 l0.96 -1.76 c0.08 -0.2 0.2 -0.4 0.32 -0.56 l0.08 -0.16 l0.36 -0.68 l0.28 -0.56 c-1.08 1.12 -2.52 2.24 -4.08 2.24 l-0.44 0 c-0.12 0 -0.24 -0.04 -0.36 -0.08 l-0.04 0 c-0.04 0 -0.08 0 -0.16 -0.04 l-0.16 0 l-0.04 -0.08 c-0.12 0 -0.2 -0.08 -0.24 -0.12 l-0.2 -0.16 c-0.28 -0.2 -0.44 -0.44 -0.56 -0.72 c-0.64 -1.92 1.28 -5.2 2.72 -8.04 l0.12 -0.2 c0.08 -0.16 0.24 -0.28 0.32 -0.52 l0.36 -0.56 c0.08 -0.2 0.24 -0.4 0.36 -0.56 c0.08 -0.04 0.16 -0.2 0.28 -0.24 c0.08 -0.08 0.24 -0.12 0.36 -0.12 l0.4 0 c0.08 -0.04 0.16 -0.04 0.24 0 c0.16 0 0.36 0.04 0.52 0.08 c0.2 0.04 0.4 0.16 0.52 0.36 c0 0.08 0 0.12 -0.04 0.2 l-0.44 0.84 l-0.32 0.48 l-0.08 0.2 l-0.24 0.4 l-0.6 1.08 c-0.12 0.28 -0.28 0.52 -0.44 0.76 l-0.52 1.04 l-0.48 0.88 l-0.32 0.68 l-0.2 0.32 l-0.24 0.72 c-0.08 0.16 -0.12 0.36 -0.16 0.48 c0 0.08 -0.04 0.16 -0.04 0.24 c-0.12 0.52 -0.16 1.8 0.68 1.8 c1.92 0 3.64 -2.32 4.52 -3.4 c1.04 -2.2 2.36 -4.96 2.36 -5 l0.12 -0.2 l0.4 -0.68 l0.28 -0.44 l0.36 -0.56 l0.28 -0.24 c0.12 -0.08 0.24 -0.12 0.36 -0.12 c0.16 -0.04 0.28 0 0.4 -0.04 c0.2 0 0.36 0.04 0.56 0.08 c0.08 0 0.16 0.04 0.24 0.04 c0.2 0.04 0.4 0.16 0.48 0.36 c0.04 0.08 0.04 0.12 0 0.2 l-0.48 0.84 l-0.28 0.52 l-0.08 0.16 l-0.24 0.44 l-0.24 0.36 l-0.48 0.92 c-0.16 0.32 -0.32 0.6 -0.52 0.88 l-0.24 0.44 c-0.36 0.68 -0.68 1.36 -1 2.04 l-0.48 0.84 c-0.12 0.16 -0.2 0.32 -0.24 0.48 l-0.12 0.2 l-0.76 1.52 l-0.36 0.64 c-0.16 0.28 -0.24 0.6 -0.4 0.84 l-0.44 0.84 l0 0.08 s-0.04 0 -0.04 0.04 l0.04 0 c0.04 0 0.04 -0.04 0.08 -0.04 l-0.04 0 z M54.00000000000001 48.72 l0 0.2 c0.04 0.16 0.04 0.28 0.12 0.44 c0.04 0.12 0.16 0.24 0.24 0.36 c0.12 0.2 0.28 0.36 0.44 0.48 l0.36 0.2 c0.24 0.08 0.48 0.12 0.72 0.16 l0.24 0 c0.04 0 0.12 0 0.16 0.04 c0.08 -0.04 0.16 -0.04 0.2 -0.04 c0.12 0 0.24 0 0.36 -0.04 c0.28 -0.04 0.52 -0.12 0.72 -0.24 c0.32 -0.16 0.64 -0.32 0.92 -0.52 s0.56 -0.4 0.84 -0.64 l0.4 -0.44 l0.56 -0.64 c0 -0.04 0.04 -0.04 0.04 -0.08 l0.44 -0.64 c0.08 -0.24 0.2 -0.48 0.32 -0.68 c0.12 -0.24 0.24 -0.44 0.32 -0.68 l0.12 -0.16 l0.24 -0.52 c0.12 -0.2 0.24 -0.36 0.32 -0.56 l0.12 -0.24 c0.16 -0.28 0.28 -0.56 0.48 -0.84 l0.24 -0.4 c0 -0.04 0.08 -0.12 0.08 -0.16 c-0.08 0 -0.12 0 -0.2 0.04 l-0.76 0.16 c-0.28 0.08 -0.6 0.16 -0.88 0.2 l-0.68 0.2 l-0.76 0.24 l-1.12 0.4 c-0.28 0.12 -0.56 0.28 -0.84 0.36 l-0.44 0.16 l-0.68 0.36 c-0.28 0.2 -0.56 0.36 -0.84 0.52 c-0.32 0.16 -0.56 0.4 -0.8 0.6 c-0.24 0.24 -0.44 0.48 -0.6 0.76 c-0.08 0.16 -0.2 0.36 -0.24 0.52 c0 0.08 0 0.12 -0.04 0.16 c-0.08 0.32 -0.12 0.64 -0.12 0.96 z M93.52000000000001 32.84 l0.04 0.04 c0 0.08 0 0.16 -0.04 0.24 c-0.04 0.16 -0.12 0.28 -0.2 0.4 c-0.2 0.24 -0.6 0.88 -0.76 1.12 c-2 2.32 -3.8 5.16 -6.12 5.16 c-0.12 0 -0.24 -0.04 -0.36 -0.08 s-0.24 -0.08 -0.36 -0.08 l-0.2 -0.12 l-0.28 -0.2 c-0.28 -0.2 -0.44 -0.48 -0.56 -0.76 c-0.84 -2.48 4.24 -7.92 2.96 -9.08 l-0.16 -0.12 c-0.08 -0.04 -0.12 -0.08 -0.2 -0.08 c-0.92 0 -1.64 0.24 -2.24 0.64 l-0.24 0.16 c-0.96 0.6 -1.8 2.36 -2.56 3.68 l-0.48 0.92 l-1.16 2.48 l-0.12 0.24 l-0.12 0.4 c-0.12 0.24 -0.24 0.48 -0.32 0.72 c-0.12 0.2 -0.2 0.44 -0.28 0.64 l-0.2 0.4 c-0.08 0.12 -0.16 0.2 -0.28 0.28 s-0.24 0.12 -0.36 0.12 l-0.4 0 c-0.16 -0.04 -0.32 -0.08 -0.48 -0.08 l-0.6 -0.12 c-0.2 -0.08 -0.28 -0.28 -0.24 -0.52 c0.04 -0.12 0.08 -0.24 0.16 -0.32 l0.44 -1.04 l0.2 -0.4 l0.36 -0.68 l0.24 -0.48 c0.12 -0.24 0.2 -0.48 0.36 -0.68 c1.12 -2.52 3.28 -5.36 2.4 -6.16 l-0.16 -0.12 c-0.08 -0.04 -0.12 -0.08 -0.2 -0.08 c-0.92 0 -1.64 0.24 -2.24 0.64 l-0.24 0.16 c-0.2 0.12 -0.36 0.24 -0.52 0.4 c-0.16 0.12 -0.32 0.28 -0.48 0.48 c-0.2 0.16 -0.36 0.36 -0.52 0.6 l-0.36 0.44 c-0.2 0.28 -0.4 0.52 -0.56 0.8 l-0.6 1.04 l-0.68 1.36 l-0.24 0.4 l-0.28 0.68 c-0.08 0.16 -0.2 0.32 -0.28 0.52 c-0.12 0.2 -0.2 0.4 -0.28 0.6 l-0.12 0.4 c-0.12 0.24 -0.24 0.48 -0.32 0.72 c-0.12 0.2 -0.2 0.44 -0.28 0.64 l-0.2 0.4 c-0.08 0.12 -0.16 0.2 -0.28 0.28 s-0.24 0.12 -0.36 0.12 l-0.4 0 c-0.16 -0.04 -0.32 -0.08 -0.48 -0.08 l-0.6 -0.12 c-0.2 -0.08 -0.28 -0.28 -0.24 -0.52 c0.04 -0.12 0.08 -0.24 0.16 -0.32 l0.44 -1.04 l0.2 -0.4 l0.36 -0.68 l0.24 -0.48 c0.12 -0.24 0.2 -0.48 0.32 -0.68 l0.2 -0.4 c0.12 -0.2 0.24 -0.36 0.32 -0.56 l0.48 -0.92 c0.12 -0.16 0.2 -0.36 0.28 -0.56 l0.12 -0.28 l0.36 -0.6 l0.08 -0.16 c0.08 -0.28 0.24 -0.52 0.4 -0.72 c0.04 -0.12 0.12 -0.2 0.16 -0.28 c0.16 -0.32 0.32 -0.64 0.52 -0.92 l0.6 -1.04 l0.48 -0.72 c0 -0.08 0.04 -0.12 0.08 -0.16 c0.04 -0.08 0.16 -0.12 0.24 -0.16 c0.16 -0.04 0.28 -0.12 0.44 -0.12 l0.16 -0.04 l0.4 0 c0.2 0 0.36 0.08 0.56 0.12 c0.16 0.04 0.28 0.16 0.36 0.24 c0 0.12 0.12 0.2 0.04 0.28 c0.04 0.12 0 0.2 -0.08 0.28 l-0.08 0.2 l-0.48 0.76 c-0.04 0 0 0 0 0.04 l0.04 -0.04 c0.24 -0.2 0.48 -0.36 0.72 -0.52 c0.28 -0.16 0.56 -0.32 0.84 -0.44 c0.4 -0.2 1.56 -0.48 2 -0.4 c1.48 0.28 2 1 2 1.92 c0.48 -0.4 1.28 -0.96 1.44 -1.08 c1 -0.6 2 -0.84 2.44 -0.88 c0.16 0 0.24 0 0.4 0.04 c3.04 0.6 1.96 2.96 0.84 5.24 l-0.48 0.92 c-0.12 0.2 -0.2 0.44 -0.32 0.68 l-0.2 0.32 l-0.24 0.72 c-0.08 0.16 -0.12 0.32 -0.16 0.48 c0 0.08 -0.04 0.12 -0.04 0.2 c0 0.16 -0.04 0.32 -0.04 0.48 s0.08 0.32 0.08 0.44 l0.16 0.24 c0.04 0.04 0.08 0.12 0.16 0.16 s0.16 0.08 0.24 0.08 c0.12 0 0.28 0 0.4 -0.04 c0.92 -0.24 3.12 -3.08 3.92 -4.04 l1 -1.36 c0.04 -0.08 0.16 -0.16 0.2 -0.28 c0.04 -0.04 0.08 -0.04 0.08 0 c0.04 0.04 0.08 0.04 0.12 0.04 s0.08 0 0.12 0.04 z M99.36000000000001 28.560000000000002 l0.16 0 c0.28 0 0.56 0.08 0.8 0.16 c0.2 0.08 0.4 0.2 0.56 0.36 c0.12 0.16 0.2 0.32 0.28 0.48 c0.12 0.24 0.16 0.52 0.24 0.76 l0 0.16 c0 0.12 -0.04 0.24 0 0.4 c0.04 0.04 0.04 0.08 0 0.12 l0 0.08 c0 0.24 -0.08 0.44 -0.12 0.64 c-0.08 0.24 -0.16 0.48 -0.28 0.72 c-0.08 0.28 -0.24 0.52 -0.36 0.8 c-0.16 0.28 -0.36 0.56 -0.56 0.84 s-0.48 0.52 -0.76 0.8 c-0.24 0.2 -0.52 0.36 -0.76 0.52 c-0.08 0.04 -0.16 0.08 -0.2 0.08 c-0.2 0.12 -0.4 0.2 -0.6 0.24 c-0.2 0.08 -0.36 0.12 -0.56 0.16 c-0.28 0.04 -0.52 0.08 -0.76 0.08 c-0.12 0 -0.2 0 -0.32 -0.04 c-0.04 0 -0.08 0 -0.16 -0.04 c-0.16 0 -0.28 -0.08 -0.4 -0.16 c-0.16 -0.04 -0.28 -0.12 -0.4 -0.2 s-0.2 -0.16 -0.28 -0.28 l-0.24 -0.28 c-0.08 -0.12 -0.16 -0.24 -0.2 -0.36 l0 -0.04 s-0.04 0 -0.04 0.04 c-0.16 0.28 -0.28 0.6 -0.4 0.92 c-0.04 0.16 -0.12 0.32 -0.16 0.52 c-0.04 0.16 -0.08 0.28 -0.08 0.44 c0.04 0.04 0 0.08 0 0.12 c-0.04 0.16 -0.08 0.36 -0.08 0.52 l0 0.52 c0 0.2 0.04 0.36 0.12 0.52 c0 0.04 0 0.08 0.04 0.12 c0.04 0.16 0.08 0.28 0.2 0.36 c0.12 0.2 0.28 0.36 0.48 0.48 c0.04 0.04 0.04 0.04 0.08 0.04 c0.28 0.12 0.6 0.2 0.88 0.24 c0.2 0.04 0.44 0.04 0.64 -0.04 l0.36 -0.08 l0.08 0 c0.12 -0.08 0.32 -0.12 0.48 -0.2 c0.08 0 0.12 -0.04 0.16 -0.08 c0.32 -0.16 0.6 -0.28 0.88 -0.52 c0.28 -0.16 0.52 -0.36 0.76 -0.56 c0.16 -0.16 0.32 -0.32 0.52 -0.44 c0.12 -0.12 0.24 -0.2 0.32 -0.32 l0.24 -0.2 c0.2 -0.16 0.32 -0.4 0.48 -0.6 l0.32 -0.4 c0.12 -0.08 0.2 -0.24 0.28 -0.36 l0.32 -0.36 l0.24 -0.32 l0.4 -0.56 l0.44 -0.56 c0.16 -0.28 0.36 -0.52 0.52 -0.76 l0.24 -0.28 c0 -0.04 0.04 -0.08 0.12 0 l0.08 0 c0.12 0.04 0.16 0.08 0.16 0.2 s-0.04 0.24 -0.12 0.32 c-0.08 0.16 -0.2 0.32 -0.32 0.44 c-0.12 0.2 -0.24 0.4 -0.4 0.56 l-0.52 0.76 l-0.48 0.68 c-0.16 0.24 -0.32 0.48 -0.52 0.72 c-0.08 0.12 -0.2 0.2 -0.28 0.36 l-0.04 0.04 c-0.28 0.2 -0.44 0.44 -0.64 0.64 l-0.96 1 c-0.2 0.2 -0.44 0.4 -0.72 0.56 c-0.12 0.08 -0.28 0.2 -0.44 0.24 l-0.24 0.16 c-0.32 0.16 -0.64 0.28 -0.96 0.36 l-0.48 0.12 l-0.4 0.08 l-0.2 0.08 c-0.08 0 -0.16 0.04 -0.28 0.04 s-0.28 -0.04 -0.4 0 c0 0.04 -0.04 0.04 -0.04 0 c-0.12 -0.04 -0.28 0 -0.4 -0.04 l-0.12 0 c-0.2 -0.04 -0.44 -0.08 -0.6 -0.16 c-0.36 -0.16 -0.72 -0.28 -1 -0.52 c-0.4 -0.32 -0.72 -0.72 -0.92 -1.16 c-0.08 -0.12 -0.12 -0.24 -0.12 -0.4 c0 0 -0.04 0 -0.04 -0.04 c-0.04 -0.12 -0.08 -0.28 -0.08 -0.44 c-0.04 -0.12 -0.04 -0.2 -0.04 -0.32 l0 -0.08 c-0.04 -0.04 -0.04 -0.12 0 -0.16 c0 -0.08 0 -0.16 -0.04 -0.24 l0 -0.08 c0.04 -0.12 0.08 -0.28 0.08 -0.4 l0.12 -0.52 c0 -0.08 0.04 -0.12 0.08 -0.2 l0 -0.08 c0.04 -0.2 0.12 -0.4 0.2 -0.6 c0.08 -0.16 0.16 -0.32 0.2 -0.48 c0.08 -0.24 0.24 -0.44 0.32 -0.68 l0.16 -0.28 c0.04 -0.08 0.12 -0.12 0.12 -0.2 c0.04 -0.12 0.12 -0.2 0.2 -0.32 c0.04 -0.12 0.12 -0.24 0.2 -0.32 l0.56 -0.76 l0.48 -0.56 l0.32 -0.36 c0.08 -0.08 0.2 -0.16 0.28 -0.28 c0.16 -0.16 0.4 -0.32 0.6 -0.48 c0.16 -0.16 0.32 -0.28 0.52 -0.4 c0.2 -0.08 0.36 -0.24 0.56 -0.28 c0.16 -0.16 0.4 -0.24 0.56 -0.32 c0.28 -0.12 0.56 -0.2 0.84 -0.28 c0.2 -0.04 0.4 -0.08 0.64 -0.08 c0.2 -0.04 0.4 -0.04 0.6 -0.04 z M100.52000000000001 30.52 c0 -0.12 0 -0.24 -0.04 -0.32 c-0.04 -0.24 -0.08 -0.44 -0.16 -0.64 c-0.04 -0.12 -0.12 -0.2 -0.24 -0.24 l-0.12 0 c-0.08 -0.04 -0.16 -0.08 -0.24 -0.08 c-0.2 -0.04 -0.4 0 -0.6 0.08 c-0.48 0.12 -0.88 0.36 -1.24 0.72 l-0.24 0.24 c-0.08 0.08 -0.16 0.12 -0.2 0.24 c-0.2 0.16 -0.36 0.36 -0.52 0.52 l-0.6 0.64 c-0.12 0.16 -0.24 0.28 -0.32 0.44 c-0.16 0.2 -0.32 0.4 -0.44 0.6 l-0.2 0.24 c-0.2 0.24 -0.28 0.48 -0.32 0.76 c-0.04 0.04 -0.04 0.12 -0.04 0.2 c0.04 0.16 0.04 0.32 0.12 0.52 c0.04 0.16 0.16 0.28 0.28 0.4 c0.16 0.12 0.36 0.12 0.56 0.16 c0.2 0 0.4 0 0.6 0.04 c0.12 0 0.28 -0.04 0.4 -0.04 c0.08 0 0.16 0 0.28 -0.04 c0.16 -0.04 0.32 -0.08 0.44 -0.16 c0.24 -0.12 0.44 -0.24 0.64 -0.4 c0.24 -0.16 0.44 -0.36 0.64 -0.56 c0.16 -0.12 0.24 -0.28 0.36 -0.4 c0.28 -0.32 0.48 -0.64 0.64 -1 c0.2 -0.32 0.32 -0.64 0.4 -1 l0.12 -0.4 c0 -0.16 0.04 -0.36 0.04 -0.52 z"></path></g><g id="SvgjsG17007" featureKey="sloganFeature-0" transform="matrix(0.8438479445670501,0,0,0.8438479445670501,175.16877003152928,100.95378967777198)" fill="url(#SvgjsLinearGradient17020)"><path d="M5.02 19.3 l-0.36 0 l-0.16 -0.54 l-2.92 -9.38 l-0.8 -2.68 l0.62 0 l3.12 10.16 l0.32 1.08 l0.12 0 l0.38 -0.94 l-0.38 -1.16 l-3.02 -9.84 l-2.14 0 l4.32 14 l1.38 0 l1.82 -4.34 l0.38 -0.92 l0.52 -1.3 l-0.38 -0.9 l-0.54 1.28 l-0.38 0.92 z M2.58 6 l3.1 10.2 l2.2 -5.26 l3.96 9.08 l0.78 0 l-4.74 -10.9 l-2.12 4.88 l-2.42 -8 l-0.76 0 z M12.74 12.18 l1.68 -5.48 l2.04 0 l-0.18 0.58 l-2.04 6.68 l-1.16 3.78 l-4.92 -11.36 l-0.52 0 l-2.12 4.92 l0.32 1.06 l2.06 -4.76 l0.64 1.46 l4.48 10.38 l0.18 0.4 l4.22 -13.84 l-3.54 0 l-1.56 5.18 z M12.86 13.92 l-0.42 -1 l-2.84 -6.54 l-0.78 0 l4.16 9.6 l2.68 -8.74 l-0.76 0 z M18.98 6 l3.48 0 l0 4.62 l-0.74 0 l0 -3.88 l-2.02 0 l0 12.52 l2.02 0 l0 -3.86 l0.74 0 l0 4.6 l-3.48 0 l0 -14 z M20.36 7.32 l0.72 0 l0 3.92 l6.1 0 l0 -5.24 l0.7 0 l0 5.94 l-7.52 0 l0 -4.62 z M30.02 6.74 l-0.68 0 l0 5.26 l-0.72 0 l0 -6 l2.1 0 l0 14 l-0.7 0 l0 -13.26 z M27.18 14.76 l-6.1 0 l0 4.02 l-0.74 0 l0 -4.76 l7.54 0 l0 5.24 l0.74 0 l0 -5.9 l-8.28 0 l0 -0.7 l9 0 l0 7.34 l-2.16 0 l0 -5.24 z M32.02 6.039999999999999 l0.72 0 l0 13.24 l7.66 0 l0 -2 l-5.64 0 l0 -1.92 l0.72 0 l0 1.2 l5.64 0 l0 3.44 l-9.1 0 l0 -13.96 z M33.38 6.039999999999999 l7.64 0 l0 3.42 l-4.8 0 l0 -0.72 l4.08 0 l0 -1.98 l-6.2 0 l0 5.78 l4.66 0 l0 0.72 l-5.38 0 l0 -7.22 z M33.38 13.9 l6.08 0 l0 -2 l-4.7 0 l0 -4.54 l4.84 0 l0 0.72 l-4.12 0 l0 3.1 l4.7 0 l0 3.44 l-6.08 0 l0 3.32 l5.6 0 l0 0.72 l-6.32 0 l0 -4.76 z M52.34 19.28 l-2.3 0 l-2.76 -5.14 l-1.86 0.02 l0 5.12 l-2.02 0 l0 -13.28 l-0.72 0 l0 14 l3.48 0 l0 -5.14 l0.7 0 l2.74 5.14 l3.94 0 l-2.76 -5.16 l-0.66 0.26 z M47.580000000000005 6.720000000000001 c2.9 0 4.54 1.3 4.54 3.68 c0 2.16 -1.3 3.48 -3.56 3.72 l-0.54 0.06 l2.5 4.62 l0.82 0 l-2.18 -4.06 c2.4 -0.42 3.68 -1.88 3.68 -4.34 c0 -0.82 -0.18 -1.56 -0.52 -2.22 c-0.8 -1.42 -2.44 -2.18 -4.74 -2.18 l-3.54 0 l0 12.78 l0.72 0 l0 -12.06 l2.82 0 z M47.42 13.52 c2.74 0 4.04 -0.94 4.04 -3.02 c0 -1.98 -1.36 -3.1 -3.54 -3.1 l-2.52 0 l0 2.1 l2.3 0 c1.06 0 1.6 0.3 1.6 0.9 c0 0.7 -0.66 1.04 -2 1.04 l-1.16 0 l0 -1.24 l-0.74 0 l0 1.96 l1.9 0 c1.78 0 2.72 -0.62 2.72 -1.76 c0 -0.36 -0.08 -0.64 -0.26 -0.86 c-0.34 -0.5 -1.02 -0.74 -2.06 -0.74 l-1.56 0 l0 -0.68 l1.78 0 c1.78 0 2.82 0.86 2.82 2.38 c0 1.58 -1.06 2.32 -3.32 2.32 l-2 0 l0 0.7 l2 0 z M54.34 6.039999999999999 l0.72 0 l0 13.24 l7.66 0 l0 -2 l-5.64 0 l0 -1.92 l0.72 0 l0 1.2 l5.64 0 l0 3.44 l-9.1 0 l0 -13.96 z M55.7 6.039999999999999 l7.64 0 l0 3.42 l-4.8 0 l0 -0.72 l4.08 0 l0 -1.98 l-6.2 0 l0 5.78 l4.66 0 l0 0.72 l-5.38 0 l0 -7.22 z M55.7 13.9 l6.08 0 l0 -2 l-4.7 0 l0 -4.54 l4.84 0 l0 0.72 l-4.12 0 l0 3.1 l4.7 0 l0 3.44 l-6.08 0 l0 3.32 l5.6 0 l0 0.72 l-6.32 0 l0 -4.76 z M77.44000000000001 8.6 l4.78 0 l0 -1.9 l-8.5 0 l0 0.62 l7.82 0 l0 0.72 l-8.54 0 l0 -2.06 l9.94 0 l0 3.34 l-4.78 0 l0 9.36 l-0.72 0 l0 -10.08 z M76.10000000000001 9.32 l-3.1 0 l0 -0.72 l3.82 0 l0 10.66 l2 0 l0 -9.32 l0.72 0 l0 10.06 l-3.44 0 l0 -10.68 z M84.38 6 l2.1 0 l0 12.66 l-0.72 0 l0 -11.94 l-0.66 0 l0 12.56 l2.02 0 l0 -13.28 l0.72 0 l0 14 l-3.46 0 l0 -14 z M92.17999999999999 5.98 l5.8 10.9 l2.42 -4.48 l1.16 7.6 l0.72 0 l-1.5 -9.84 l-2.8 5.18 l-4.98 -9.36 l-0.82 0 z M98.56 11.36 l-0.94 1.74 l0.42 0.76 l1.32 -2.5 l1.76 -3.28 l0.06 -0.14 l0.66 -1.22 l0.48 0 l0.06 0.48 l1.5 9.76 l0.34 2.3 l-0.66 0 l-1.52 -9.9 l-0.18 -1.2 l-0.56 1.06 l1.6 10.48 l-0.02 0 l0.06 0.3 l2.12 0 l-2.12 -14.02 l-1.54 0 z M97.34 17.06 l-5.74 -10.82 l-0.12 -0.2 l-2.12 13.96 l3.5 0 l0.64 -4.14 l-0.42 -0.78 l-0.16 -0.3 l-0.68 4.48 l-2.04 0 l1.68 -10.96 l6.12 11.52 l2.18 -4.14 l-0.16 -1.06 l-0.02 -0.14 l-2 3.8 z M92.6 12.620000000000001 l3.92 7.38 l0.82 0 l-5.12 -9.62 l-1.3 8.36 l0.72 0 z M106.06 6.039999999999999 l0.72 0 l0 13.24 l7.66 0 l0 -2 l-5.64 0 l0 -1.92 l0.72 0 l0 1.2 l5.64 0 l0 3.44 l-9.1 0 l0 -13.96 z M107.42 6.039999999999999 l7.64 0 l0 3.42 l-4.8 0 l0 -0.72 l4.08 0 l0 -1.98 l-6.2 0 l0 5.78 l4.66 0 l0 0.72 l-5.38 0 l0 -7.22 z M107.42 13.9 l6.08 0 l0 -2 l-4.7 0 l0 -4.54 l4.84 0 l0 0.72 l-4.12 0 l0 3.1 l4.7 0 l0 3.44 l-6.08 0 l0 3.32 l5.6 0 l0 0.72 l-6.32 0 l0 -4.76 z M127.14 5.98 l5.8 10.9 l2.42 -4.48 l1.16 7.6 l0.72 0 l-1.5 -9.84 l-2.8 5.18 l-4.98 -9.36 l-0.82 0 z M133.52 11.36 l-0.94 1.74 l0.42 0.76 l1.32 -2.5 l1.76 -3.28 l0.06 -0.14 l0.66 -1.22 l0.48 0 l0.06 0.48 l1.5 9.76 l0.34 2.3 l-0.66 0 l-1.52 -9.9 l-0.18 -1.2 l-0.56 1.06 l1.6 10.48 l-0.02 0 l0.06 0.3 l2.12 0 l-2.12 -14.02 l-1.54 0 z M132.3 17.06 l-5.74 -10.82 l-0.12 -0.2 l-2.12 13.96 l3.5 0 l0.64 -4.14 l-0.42 -0.78 l-0.16 -0.3 l-0.68 4.48 l-2.04 0 l1.68 -10.96 l6.12 11.52 l2.18 -4.14 l-0.16 -1.06 l-0.02 -0.14 l-2 3.8 z M127.56 12.620000000000001 l3.92 7.38 l0.82 0 l-5.12 -9.62 l-1.3 8.36 l0.72 0 z M141.02 6.039999999999999 l0.72 0 l0 13.24 l7.66 0 l0 -2 l-5.64 0 l0 -1.92 l0.72 0 l0 1.2 l5.64 0 l0 3.44 l-9.1 0 l0 -13.96 z M142.38000000000002 6.039999999999999 l7.64 0 l0 3.42 l-4.8 0 l0 -0.72 l4.08 0 l0 -1.98 l-6.2 0 l0 5.78 l4.66 0 l0 0.72 l-5.38 0 l0 -7.22 z M142.38000000000002 13.9 l6.08 0 l0 -2 l-4.7 0 l0 -4.54 l4.84 0 l0 0.72 l-4.12 0 l0 3.1 l4.7 0 l0 3.44 l-6.08 0 l0 3.32 l5.6 0 l0 0.72 l-6.32 0 l0 -4.76 z M151.82 6.039999999999999 l0.72 0 l0 13.24 l7.66 0 l0 -2 l-5.64 0 l0 -1.92 l0.72 0 l0 1.2 l5.64 0 l0 3.44 l-9.1 0 l0 -13.96 z M153.18 6.039999999999999 l7.64 0 l0 3.42 l-4.8 0 l0 -0.72 l4.08 0 l0 -1.98 l-6.2 0 l0 5.78 l4.66 0 l0 0.72 l-5.38 0 l0 -7.22 z M153.18 13.9 l6.08 0 l0 -2 l-4.7 0 l0 -4.54 l4.84 0 l0 0.72 l-4.12 0 l0 3.1 l4.7 0 l0 3.44 l-6.08 0 l0 3.32 l5.6 0 l0 0.72 l-6.32 0 l0 -4.76 z M166.92 8.6 l4.78 0 l0 -1.9 l-8.5 0 l0 0.62 l7.82 0 l0 0.72 l-8.54 0 l0 -2.06 l9.94 0 l0 3.34 l-4.78 0 l0 9.36 l-0.72 0 l0 -10.08 z M165.57999999999998 9.32 l-3.1 0 l0 -0.72 l3.82 0 l0 10.66 l2 0 l0 -9.32 l0.72 0 l0 10.06 l-3.44 0 l0 -10.68 z M176.23999999999998 16.7 c0.98 0.44 1.84 0.66 2.56 0.66 c0.36 0 0.58 -0.02 0.68 -0.08 c0.46 -0.12 0.78 -0.38 0.98 -0.78 l0.02 -0.04 c0.1 -0.18 0.14 -0.4 0.14 -0.68 c0 -0.14 -0.04 -0.3 -0.12 -0.5 l-0.04 -0.08 c-0.26 -0.54 -0.84 -0.9 -1.9 -1.24 l-0.2 -0.06 l-0.06 -0.02 c-1.62 -0.48 -2.66 -1.24 -3.16 -2.3 c-0.2 -0.4 -0.3 -0.84 -0.3 -1.32 c0 -0.5 0.1 -0.98 0.3 -1.48 l0.04 -0.08 c0.46 -0.92 1.2 -1.52 2.18 -1.82 c0.7 -0.1 1.1 -0.16 1.2 -0.16 c1.36 0 2.94 0.56 4.72 1.66 l0.38 -0.62 c-1.94 -1.18 -3.62 -1.76 -5.08 -1.76 c-0.58 0 -1.06 0.06 -1.4 0.2 c-1.18 0.32 -2.06 1.04 -2.64 2.18 l-0.06 0.14 c-0.24 0.58 -0.36 1.16 -0.36 1.74 c0 0.62 0.12 1.16 0.36 1.64 c0.62 1.24 1.82 2.12 3.62 2.66 l0.24 0.08 c0.82 0.26 1.3 0.54 1.48 0.86 l0.02 0.04 c0.04 0.06 0.06 0.14 0.06 0.24 c0 0.18 -0.02 0.3 -0.08 0.4 c-0.14 0.32 -0.48 0.48 -1.02 0.48 c-0.86 0 -2.1 -0.44 -3.06 -1.06 l-0.3 -0.18 l-1.76 2.84 l0.3 0.18 c1.42 0.96 3.3 1.56 4.82 1.56 c0.5 0 0.96 -0.06 1.38 -0.18 c1.18 -0.34 2.06 -1.08 2.64 -2.2 l0.08 -0.14 c0.24 -0.62 0.36 -1.2 0.36 -1.74 c0 -0.48 -0.16 -1.08 -0.46 -1.82 c-0.54 -1.08 -1.68 -1.9 -3.46 -2.46 l-0.28 -0.08 c-0.56 -0.18 -0.94 -0.36 -1.12 -0.5 c-0.24 -0.2 -0.38 -0.34 -0.44 -0.42 l-0.04 -0.22 c0 -0.2 0.04 -0.38 0.14 -0.52 c0.16 -0.3 0.32 -0.38 0.96 -0.38 c0.86 0 2.1 0.44 3.06 1.06 l0.3 0.18 l1.08 -1.72 l-0.32 -0.18 c-1.22 -0.8 -2.88 -1.36 -4.1 -1.36 c-0.54 0 -0.88 0.04 -1.06 0.14 c-0.82 0.24 -1.44 0.76 -1.84 1.54 c-0.18 0.34 -0.26 0.74 -0.26 1.24 c0 0.38 0.08 0.74 0.24 1.08 c0.42 0.9 1.36 1.56 2.82 2 l0.26 0.08 l0.54 0.2 c0.3 0.12 0.62 0.28 0.98 0.48 c0.64 0.38 0.96 0.92 0.96 1.64 c0 0.4 -0.1 0.78 -0.28 1.12 c-0.42 0.74 -1.14 1.12 -2.14 1.12 c-0.68 0 -1.64 -0.26 -2.88 -0.76 l-0.34 0.58 l-0.02 0.04 c1.14 0.58 2.22 0.86 3.26 0.86 c0.58 0 1.12 -0.12 1.6 -0.36 c0.94 -0.46 1.52 -1.42 1.52 -2.62 c0 -1.9 -1.46 -2.46 -3 -3 l-0.26 -0.08 c-1.26 -0.38 -2.04 -0.9 -2.36 -1.6 c-0.12 -0.24 -0.18 -0.5 -0.18 -0.8 c0 -0.38 0.06 -0.68 0.2 -0.94 c0.32 -0.58 0.78 -0.96 1.38 -1.14 l0.8 -0.1 c1.06 0 2.22 0.36 3.48 1.06 l-0.32 0.5 c-1.3 -0.64 -2.34 -0.96 -3.1 -0.96 c-0.38 0 -0.6 0.02 -0.7 0.08 c-0.44 0.12 -0.76 0.38 -0.98 0.8 l-0.02 0.04 c-0.1 0.18 -0.14 0.42 -0.14 0.72 c0 0.22 0.04 0.38 0.1 0.48 c0.26 0.54 0.94 0.98 2.02 1.3 l0.26 0.08 l0.5 0.16 c0.06 0.02 0.38 0.16 0.96 0.44 c0.78 0.44 1.34 1 1.66 1.66 c0.2 0.4 0.3 0.84 0.3 1.32 c0 0.58 -0.1 1.08 -0.32 1.5 l-0.04 0.08 c-0.46 0.92 -1.2 1.52 -2.18 1.82 c-0.7 0.1 -1.1 0.16 -1.2 0.16 c-1.02 0 -2.34 -0.38 -3.56 -0.96 l-0.56 -0.3 l1 -1.62 z M195.01999999999998 16.7 c0.98 0.44 1.84 0.66 2.56 0.66 c0.36 0 0.58 -0.02 0.68 -0.08 c0.46 -0.12 0.78 -0.38 0.98 -0.78 l0.02 -0.04 c0.1 -0.18 0.14 -0.4 0.14 -0.68 c0 -0.14 -0.04 -0.3 -0.12 -0.5 l-0.04 -0.08 c-0.26 -0.54 -0.84 -0.9 -1.9 -1.24 l-0.2 -0.06 l-0.06 -0.02 c-1.62 -0.48 -2.66 -1.24 -3.16 -2.3 c-0.2 -0.4 -0.3 -0.84 -0.3 -1.32 c0 -0.5 0.1 -0.98 0.3 -1.48 l0.04 -0.08 c0.46 -0.92 1.2 -1.52 2.18 -1.82 c0.7 -0.1 1.1 -0.16 1.2 -0.16 c1.36 0 2.94 0.56 4.72 1.66 l0.38 -0.62 c-1.94 -1.18 -3.62 -1.76 -5.08 -1.76 c-0.58 0 -1.06 0.06 -1.4 0.2 c-1.18 0.32 -2.06 1.04 -2.64 2.18 l-0.06 0.14 c-0.24 0.58 -0.36 1.16 -0.36 1.74 c0 0.62 0.12 1.16 0.36 1.64 c0.62 1.24 1.82 2.12 3.62 2.66 l0.24 0.08 c0.82 0.26 1.3 0.54 1.48 0.86 l0.02 0.04 c0.04 0.06 0.06 0.14 0.06 0.24 c0 0.18 -0.02 0.3 -0.08 0.4 c-0.14 0.32 -0.48 0.48 -1.02 0.48 c-0.86 0 -2.1 -0.44 -3.06 -1.06 l-0.3 -0.18 l-1.76 2.84 l0.3 0.18 c1.42 0.96 3.3 1.56 4.82 1.56 c0.5 0 0.96 -0.06 1.38 -0.18 c1.18 -0.34 2.06 -1.08 2.64 -2.2 l0.08 -0.14 c0.24 -0.62 0.36 -1.2 0.36 -1.74 c0 -0.48 -0.16 -1.08 -0.46 -1.82 c-0.54 -1.08 -1.68 -1.9 -3.46 -2.46 l-0.28 -0.08 c-0.56 -0.18 -0.94 -0.36 -1.12 -0.5 c-0.24 -0.2 -0.38 -0.34 -0.44 -0.42 l-0.04 -0.22 c0 -0.2 0.04 -0.38 0.14 -0.52 c0.16 -0.3 0.32 -0.38 0.96 -0.38 c0.86 0 2.1 0.44 3.06 1.06 l0.3 0.18 l1.08 -1.72 l-0.32 -0.18 c-1.22 -0.8 -2.88 -1.36 -4.1 -1.36 c-0.54 0 -0.88 0.04 -1.06 0.14 c-0.82 0.24 -1.44 0.76 -1.84 1.54 c-0.18 0.34 -0.26 0.74 -0.26 1.24 c0 0.38 0.08 0.74 0.24 1.08 c0.42 0.9 1.36 1.56 2.82 2 l0.26 0.08 l0.54 0.2 c0.3 0.12 0.62 0.28 0.98 0.48 c0.64 0.38 0.96 0.92 0.96 1.64 c0 0.4 -0.1 0.78 -0.28 1.12 c-0.42 0.74 -1.14 1.12 -2.14 1.12 c-0.68 0 -1.64 -0.26 -2.88 -0.76 l-0.34 0.58 l-0.02 0.04 c1.14 0.58 2.22 0.86 3.26 0.86 c0.58 0 1.12 -0.12 1.6 -0.36 c0.94 -0.46 1.52 -1.42 1.52 -2.62 c0 -1.9 -1.46 -2.46 -3 -3 l-0.26 -0.08 c-1.26 -0.38 -2.04 -0.9 -2.36 -1.6 c-0.12 -0.24 -0.18 -0.5 -0.18 -0.8 c0 -0.38 0.06 -0.68 0.2 -0.94 c0.32 -0.58 0.78 -0.96 1.38 -1.14 l0.8 -0.1 c1.06 0 2.22 0.36 3.48 1.06 l-0.32 0.5 c-1.3 -0.64 -2.34 -0.96 -3.1 -0.96 c-0.38 0 -0.6 0.02 -0.7 0.08 c-0.44 0.12 -0.76 0.38 -0.98 0.8 l-0.02 0.04 c-0.1 0.18 -0.14 0.42 -0.14 0.72 c0 0.22 0.04 0.38 0.1 0.48 c0.26 0.54 0.94 0.98 2.02 1.3 l0.26 0.08 l0.5 0.16 c0.06 0.02 0.38 0.16 0.96 0.44 c0.78 0.44 1.34 1 1.66 1.66 c0.2 0.4 0.3 0.84 0.3 1.32 c0 0.58 -0.1 1.08 -0.32 1.5 l-0.04 0.08 c-0.46 0.92 -1.2 1.52 -2.18 1.82 c-0.7 0.1 -1.1 0.16 -1.2 0.16 c-1.02 0 -2.34 -0.38 -3.56 -0.96 l-0.56 -0.3 l1 -1.62 z M208.07999999999998 8.6 l4.78 0 l0 -1.9 l-8.5 0 l0 0.62 l7.82 0 l0 0.72 l-8.54 0 l0 -2.06 l9.94 0 l0 3.34 l-4.78 0 l0 9.36 l-0.72 0 l0 -10.08 z M206.73999999999998 9.32 l-3.1 0 l0 -0.72 l3.82 0 l0 10.66 l2 0 l0 -9.32 l0.72 0 l0 10.06 l-3.44 0 l0 -10.68 z M221.21999999999997 18.72 l0.72 0 l-0.02 -5.82 l4.26 -6.18 l0.78 0 l-4.34 6.22 l0 6.34 l-2.06 0 l0.02 -6.34 l-4.86 -6.94 l-0.88 0 l4.98 7.16 l0 6.84 l3.52 0 l0 -6.84 l5 -7.16 l-2.52 0 l-4.6 6.66 l0 6.06 z M224.15999999999997 6 l-3.34 4.9 l-2.96 -4.18 l0.78 0 l2.24 3.16 l0.44 -0.64 l-2.3 -3.24 l-2.52 0 l3.98 5.66 l0.34 0.52 l4.22 -6.18 l-0.88 0 z M230.01999999999998 5.98 l2.06 0 l0 12.7 l-0.74 0 l0 -11.98 l-0.6 0 l0 12.58 l6.58 0 l0 -1.92 l-3.26 0 l0 -0.72 l3.98 0 l0 3.36 l-8.02 0 l0 -14.02 z M232.73999999999998 5.98 l0.72 0 l0 11.96 l3.22 0 l0 0.74 l-3.94 0 l0 -12.7 z M239.55999999999997 6.039999999999999 l0.72 0 l0 13.24 l7.66 0 l0 -2 l-5.64 0 l0 -1.92 l0.72 0 l0 1.2 l5.64 0 l0 3.44 l-9.1 0 l0 -13.96 z M240.92 6.039999999999999 l7.64 0 l0 3.42 l-4.8 0 l0 -0.72 l4.08 0 l0 -1.98 l-6.2 0 l0 5.78 l4.66 0 l0 0.72 l-5.38 0 l0 -7.22 z M240.92 13.9 l6.08 0 l0 -2 l-4.7 0 l0 -4.54 l4.84 0 l0 0.72 l-4.12 0 l0 3.1 l4.7 0 l0 3.44 l-6.08 0 l0 3.32 l5.6 0 l0 0.72 l-6.32 0 l0 -4.76 z"></path></g>
			</g>
		</svg>
	